# Blender v2.79 (sub 0) OBJ File: 'niche.blend'
# www.blender.org
mtllib niche.mtl
o Cube.001_Cube.003
v -1.490753 0.039900 1.339730
v -1.490753 0.039900 -1.339730
v 1.424931 0.039900 1.339730
v 1.424931 0.039900 -1.339730
v -1.620154 -0.039900 1.439730
v -1.620154 -0.039900 -1.439730
v 1.554331 -0.039900 1.439730
v 1.554331 -0.039900 -1.439730
v -1.490753 1.839112 1.339730
v -1.490753 1.839112 -1.339730
v 1.424931 1.839112 -1.339730
v 1.424931 1.839112 1.339730
v -1.620154 1.839112 1.439730
v -1.620154 1.839112 -1.439730
v 1.424931 1.839112 1.439730
v 1.424931 1.839112 -1.439730
v 1.554331 1.839112 1.439730
v 1.554331 1.839112 -1.439730
v 1.424931 0.039900 -0.521070
v 1.424931 0.039900 0.521070
v 1.554331 -0.039900 1.042140
v 1.554331 -0.039900 -0.521070
v 1.554331 0.039900 -0.521070
v 1.554331 0.039900 0.521070
v 1.554331 0.039900 1.042140
v 1.424931 1.088802 -0.521070
v 1.424931 1.088802 0.521070
v 1.424931 1.276380 -0.473625
v 1.424931 1.463957 -0.358929
v 1.424931 1.584647 -0.116479
v 1.424931 1.606870 0.000000
v 1.424931 1.276380 0.473625
v 1.424931 1.463957 0.358929
v 1.424931 1.584647 0.116479
v 1.554331 1.088501 0.521070
v 1.554331 1.088501 -0.521070
v 1.554331 1.276154 0.473625
v 1.554331 1.463806 0.358929
v 1.554331 1.584572 0.116479
v 1.554331 1.606795 0.000000
v 1.554331 1.276154 -0.473625
v 1.554331 1.463806 -0.358929
v 1.554331 1.584572 -0.116479
v 1.424931 3.033545 0.000000
v 1.554331 3.033545 0.000000
v -1.490753 3.033545 -0.000000
v -1.620154 3.033545 0.000000
v -2.168259 1.445292 1.961593
v -2.168259 1.518101 1.961593
v -2.168259 3.076348 0.004195
v -2.168259 3.149157 0.004195
v 2.169059 1.445292 1.961593
v 2.169059 1.518101 1.961593
v 2.169059 3.076348 0.004195
v 2.169059 3.149157 0.004195
v -2.168259 1.463550 -1.931162
v -2.168259 1.536359 -1.931162
v 2.169059 1.463550 -1.931162
v 2.169059 1.536359 -1.931162
vt 0.001001 0.248999
vt 0.080122 0.001001
vt 0.248999 0.248999
vt 0.248999 0.498999
vt 0.011540 0.423228
vt 0.011540 0.326772
vt 0.998999 0.251001
vt 0.761110 0.373999
vt 0.751001 0.251001
vt 0.764624 0.748999
vt 0.751001 0.501001
vt 0.751001 0.748999
vt 0.748999 0.889624
vt 0.501001 0.876001
vt 0.501001 0.889624
vt 0.501001 0.125000
vt 0.619189 0.125000
vt 0.621030 0.135032
vt 0.782251 0.626001
vt 0.795874 0.748999
vt 0.795874 0.626001
vt 0.873999 0.751001
vt 0.751001 0.764624
vt 0.873999 0.764624
vt 0.599950 0.501001
vt 0.748999 0.748999
vt 0.599950 0.748999
vt 0.811499 0.501001
vt 0.797876 0.623999
vt 0.811499 0.623999
vt 0.251001 0.751001
vt 0.261110 0.751001
vt 0.251001 0.873999
vt 0.751001 0.123803
vt 0.756285 0.123824
vt 0.868715 0.248977
vt 0.748999 0.873999
vt 0.501001 0.751001
vt 0.501001 0.873999
vt 0.097381 0.998999
vt 0.001001 0.875000
vt 0.097380 0.751001
vt 0.797876 0.797876
vt 0.811499 0.811499
vt 0.811499 0.797876
vt 0.782251 0.797876
vt 0.795874 0.811499
vt 0.795874 0.797876
vt 0.797876 0.782251
vt 0.811499 0.795874
vt 0.811499 0.782251
vt 0.782251 0.782251
vt 0.795874 0.795874
vt 0.795874 0.782251
vt 0.766626 0.797876
vt 0.780249 0.811499
vt 0.780249 0.797876
vt 0.751001 0.797876
vt 0.764624 0.811499
vt 0.764624 0.797876
vt 0.766626 0.782251
vt 0.780249 0.795874
vt 0.780249 0.782251
vt 0.827124 0.501001
vt 0.813501 0.561499
vt 0.827124 0.561499
vt 0.811499 0.766626
vt 0.751001 0.780249
vt 0.811499 0.780249
vt 0.764624 0.782251
vt 0.751001 0.795874
vt 0.764624 0.795874
vt 0.782251 0.501001
vt 0.795874 0.623999
vt 0.795874 0.501001
vt 0.998999 0.498999
vt 0.751001 0.376001
vt 0.751001 0.498999
vt 0.797876 0.748999
vt 0.797876 0.626001
vt 0.811499 0.708000
vt 0.375000 0.616126
vt 0.375000 0.501001
vt 0.385032 0.617920
vt 0.501001 0.251001
vt 0.748999 0.498999
vt 0.748999 0.251001
vt 0.748999 0.891626
vt 0.501001 0.905249
vt 0.748999 0.905249
vt 0.001001 0.501001
vt 0.248999 0.748999
vt 0.248999 0.501001
vt 0.251001 0.251001
vt 0.498999 0.498999
vt 0.498999 0.251001
vt 0.766626 0.501001
vt 0.780249 0.748999
vt 0.780249 0.501001
vt 0.251001 0.001001
vt 0.498999 0.248999
vt 0.498999 0.001001
vt 0.261656 0.938083
vt 0.488344 0.876012
vt 0.498999 0.876001
vt 0.248999 0.001001
vt 0.214756 0.001001
vt 0.001001 0.001001
vt 0.011540 0.251001
vt 0.248999 0.251001
vt 0.011540 0.498999
vt 0.001001 0.423228
vt 0.001001 0.326772
vt 0.751001 0.373999
vt 0.998999 0.373999
vt 0.764624 0.501001
vt 0.748999 0.876001
vt 0.599950 0.240386
vt 0.599950 0.248999
vt 0.599950 0.001001
vt 0.599950 0.009614
vt 0.748999 0.009614
vt 0.662106 0.080122
vt 0.748999 0.080122
vt 0.748999 0.169878
vt 0.748999 0.240386
vt 0.662106 0.169878
vt 0.646567 0.084208
vt 0.631028 0.094087
vt 0.646567 0.165792
vt 0.631028 0.155913
vt 0.621030 0.114968
vt 0.782251 0.748999
vt 0.751001 0.751001
vt 0.501001 0.625000
vt 0.748999 0.501001
vt 0.797876 0.501001
vt 0.498999 0.873999
vt 0.498999 0.751001
vt 0.868715 0.001001
vt 0.873999 0.248999
vt 0.873999 0.001023
vt 0.748999 0.751001
vt 0.248999 0.751001
vt 0.248999 0.998999
vt 0.797876 0.811499
vt 0.782251 0.811499
vt 0.797876 0.795874
vt 0.782251 0.795874
vt 0.766626 0.811499
vt 0.751001 0.811499
vt 0.766626 0.795874
vt 0.813501 0.501001
vt 0.751001 0.766626
vt 0.751001 0.782251
vt 0.782251 0.623999
vt 0.998999 0.376001
vt 0.811499 0.626001
vt 0.811499 0.748999
vt 0.498999 0.597380
vt 0.498999 0.748999
vt 0.419878 0.657948
vt 0.464756 0.742560
vt 0.419878 0.742560
vt 0.464756 0.748999
vt 0.251001 0.597381
vt 0.344087 0.627664
vt 0.330122 0.748999
vt 0.251001 0.748999
vt 0.330122 0.742560
vt 0.330122 0.657948
vt 0.415792 0.642806
vt 0.334208 0.642806
vt 0.405913 0.627664
vt 0.364968 0.617920
vt 0.501001 0.498999
vt 0.501001 0.891626
vt 0.001001 0.748999
vt 0.251001 0.498999
vt 0.766626 0.748999
vt 0.251001 0.248999
vt 0.498999 0.998988
vt 0.488344 0.998999
vt 0.251001 0.938094
vn 0.0000 -1.0000 0.0000
vn 0.0000 1.0000 0.0000
vn 0.0000 0.0000 -1.0000
vn -1.0000 0.0000 -0.0000
vn 0.0000 0.7696 0.6385
vn 0.0000 0.7696 -0.6385
vn 1.0000 0.0000 0.0000
vn 0.0000 0.7464 -0.6655
vn 0.0000 0.0000 1.0000
vn -0.0006 -0.5217 -0.8531
vn -0.0004 -0.2452 -0.9695
vn -0.0005 -0.8952 -0.4456
vn -0.0006 -0.9823 0.1874
vn -0.0005 -0.8952 0.4456
vn -0.0006 -0.5217 0.8531
vn -0.0004 -0.2452 0.9695
vn -0.0006 -0.9823 -0.1874
vn 0.4425 0.6902 0.5726
vn 0.0000 0.7682 -0.6402
vn 0.0000 -0.7682 -0.6402
vn 0.0000 0.7682 0.6402
vn 0.0000 -0.7682 0.6402
vn 0.4425 0.6902 -0.5726
vn -0.0009 -0.5215 -0.8532
vn -0.0006 -0.2451 -0.9695
vn -0.0010 -0.8951 -0.4459
vn -0.0010 -0.8951 0.4459
vn -0.0009 -0.5215 0.8532
vn -0.0006 -0.2451 0.9695
vn 0.0000 0.7464 0.6655
usemtl Material.001
s off
f 6/1/1 22/2/1 5/3/1
f 1/4/2 20/5/2 19/6/2
f 6/7/3 16/8/3 8/9/3
f 10/10/2 16/11/2 14/12/2
f 9/13/2 15/14/2 12/15/2
f 44/16/4 31/17/4 34/18/4
f 17/19/5 44/20/5 15/21/5
f 16/22/6 45/23/6 18/24/6
f 9/25/7 2/26/7 10/27/7
f 10/28/8 47/29/8 46/30/8
f 17/31/9 15/32/9 7/33/9
f 51/34/4 50/35/4 49/36/4
f 12/37/3 1/38/3 9/39/3
f 13/40/4 47/41/4 14/42/4
f 38/43/10 32/44/10 33/45/10
f 37/46/11 27/47/11 32/48/11
f 39/49/12 33/50/12 34/51/12
f 30/52/13 40/53/13 31/54/13
f 29/55/14 43/56/14 30/57/14
f 28/58/15 42/59/15 29/60/15
f 26/61/16 41/62/16 28/63/16
f 19/64/9 36/65/9 26/66/9
f 35/67/3 20/68/3 27/69/3
f 34/70/17 40/71/17 39/72/17
f 9/73/18 47/74/18 13/75/18
f 10/76/9 4/77/9 11/78/9
f 21/79/7 22/80/7 24/81/7
f 40/82/7 45/83/7 39/84/7
f 55/85/19 57/86/19 51/87/19
f 53/88/9 48/89/9 52/90/9
f 54/91/20 48/92/20 50/93/20
f 51/94/21 53/95/21 55/96/21
f 57/97/3 58/98/3 56/99/3
f 50/100/22 58/101/22 54/102/22
f 54/103/7 53/104/7 52/105/7
f 7/106/1 5/3/1 21/107/1
f 6/1/1 8/108/1 22/2/1
f 21/107/1 5/3/1 22/2/1
f 4/109/2 2/110/2 19/6/2
f 1/4/2 3/111/2 20/5/2
f 20/5/2 24/112/2 23/113/2
f 19/6/2 2/110/2 1/4/2
f 20/5/2 23/113/2 19/6/2
f 18/114/3 8/9/3 16/8/3
f 6/7/3 14/115/3 16/8/3
f 10/10/2 11/116/2 16/11/2
f 9/13/2 13/117/2 15/14/2
f 12/118/4 15/119/4 44/16/4
f 44/16/4 16/120/4 11/121/4
f 11/121/4 4/122/4 26/123/4
f 4/122/4 19/124/4 26/123/4
f 12/118/4 44/16/4 34/18/4
f 20/125/4 3/126/4 27/127/4
f 27/127/4 3/126/4 12/118/4
f 11/121/4 26/123/4 28/128/4
f 11/121/4 28/128/4 29/129/4
f 32/130/4 27/127/4 12/118/4
f 33/131/4 32/130/4 12/118/4
f 11/121/4 29/129/4 30/132/4
f 11/121/4 30/132/4 44/16/4
f 34/18/4 33/131/4 12/118/4
f 44/16/4 30/132/4 31/17/4
f 17/19/5 45/133/5 44/20/5
f 16/22/6 44/134/6 45/23/6
f 10/27/7 46/135/7 9/25/7
f 9/25/7 1/136/7 2/26/7
f 10/28/23 14/137/23 47/29/23
f 5/138/9 7/33/9 15/32/9
f 15/32/9 13/139/9 5/138/9
f 51/34/4 57/140/4 50/35/4
f 50/35/4 48/141/4 49/36/4
f 57/140/4 56/142/4 50/35/4
f 12/37/3 3/143/3 1/38/3
f 14/42/4 6/144/4 5/145/4
f 5/145/4 13/40/4 14/42/4
f 38/43/24 37/146/24 32/44/24
f 37/46/25 35/147/25 27/47/25
f 39/49/26 38/148/26 33/50/26
f 30/52/13 43/149/13 40/53/13
f 29/55/27 42/150/27 43/56/27
f 28/58/28 41/151/28 42/59/28
f 26/61/29 36/152/29 41/62/29
f 19/64/9 23/153/9 36/65/9
f 35/67/3 24/154/3 20/68/3
f 34/70/17 31/155/17 40/71/17
f 9/73/30 46/156/30 47/74/30
f 10/76/9 2/157/9 4/77/9
f 23/158/7 24/81/7 22/80/7
f 25/159/7 21/79/7 24/81/7
f 17/160/7 7/161/7 35/162/7
f 25/163/7 24/164/7 35/162/7
f 7/161/7 21/165/7 25/163/7
f 18/166/7 45/83/7 42/167/7
f 22/168/7 8/169/7 23/170/7
f 36/171/7 23/170/7 8/169/7
f 36/171/7 8/169/7 18/166/7
f 7/161/7 25/163/7 35/162/7
f 17/160/7 35/162/7 37/172/7
f 41/173/7 36/171/7 18/166/7
f 42/167/7 41/173/7 18/166/7
f 17/160/7 37/172/7 38/174/7
f 17/160/7 38/174/7 45/83/7
f 43/175/7 42/167/7 45/83/7
f 38/174/7 39/84/7 45/83/7
f 40/82/7 43/175/7 45/83/7
f 55/85/19 59/176/19 57/86/19
f 53/88/9 49/177/9 48/89/9
f 54/91/20 52/178/20 48/92/20
f 51/94/21 49/179/21 53/95/21
f 57/97/3 59/180/3 58/98/3
f 50/100/22 56/181/22 58/101/22
f 54/103/7 58/182/7 59/183/7
f 55/184/7 53/104/7 54/103/7
f 54/103/7 59/183/7 55/184/7
