# Blender v2.80 (sub 75) OBJ File: 'Table.blend'
# www.blender.org
mtllib Table.mtl
o Table
v -84.388100 78.157394 45.243313
v -76.775803 0.002093 43.910000
v -75.677696 78.157394 45.243313
v -75.452202 78.157394 45.017811
v -76.775803 0.002094 37.338799
v -75.452202 78.157394 36.231010
v -75.677696 78.157394 36.005512
v -83.290001 0.002094 37.338902
v -84.388100 78.157394 36.005512
v -84.613602 78.157394 36.231010
v -83.290001 0.002093 43.910000
v -84.613602 78.157394 45.017811
v 84.391197 78.157295 45.250713
v 76.771599 -0.002107 43.914101
v 83.294098 -0.002107 43.914101
v 75.444801 78.157295 45.020912
v 76.771599 -0.002106 37.334702
v 75.674599 78.157295 35.998112
v 83.294098 -0.002106 37.334702
v 84.620903 78.157295 36.227913
v 84.620903 78.157295 45.020912
v 75.674599 78.157295 45.250713
v 75.444801 78.157295 36.227913
v 84.391197 78.157295 35.998112
v -84.391502 78.157211 -45.251587
v -76.771103 0.000007 -43.914600
v -83.294601 0.000007 -43.914600
v -75.443901 78.157211 -45.021290
v -76.771103 0.000006 -37.334202
v -75.674202 78.157211 -35.997189
v -83.294601 0.000006 -37.334202
v -84.621902 78.157211 -36.227489
v -84.621902 78.157211 -45.021290
v -75.674202 78.157211 -45.251587
v -75.443901 78.157211 -36.227489
v -84.391502 78.157211 -35.997189
v 84.391502 78.157211 -45.251587
v 76.771103 0.000007 -43.914600
v 75.674202 78.157211 -45.251587
v 75.443901 78.157211 -45.021290
v 76.771103 0.000006 -37.334202
v 75.443901 78.157211 -36.227489
v 75.674202 78.157211 -35.997189
v 83.294601 0.000006 -37.334202
v 84.391502 78.157211 -35.997189
v 84.621902 78.157211 -36.227489
v 83.294601 0.000007 -43.914600
v 84.621902 78.157211 -45.021290
v -77.730400 78.214790 36.402912
v -77.730400 68.383011 -36.789188
v -77.730400 78.214806 -36.789188
v -78.207802 67.905594 36.402912
v -82.330902 67.905609 -36.789188
v -78.207802 67.905609 -36.789188
v -82.808296 68.382996 36.402912
v -82.808296 78.214806 -36.789188
v -82.808296 68.383011 -36.789188
v -77.730400 68.382996 36.402912
v -82.330902 67.905594 36.402912
v 77.730400 78.214790 36.402912
v 77.730400 68.383011 -36.789188
v 77.730400 68.382996 36.402912
v 78.207802 67.905594 36.402912
v 82.330902 67.905609 -36.789188
v 82.330902 67.905594 36.402912
v 82.808296 68.382996 36.402912
v 82.808296 78.214806 -36.789188
v 82.808296 78.214790 36.402912
v 78.207802 67.905609 -36.789188
v 82.808296 68.383011 -36.789188
v -76.146698 67.886391 42.863510
v 76.146698 67.886391 38.385410
v 76.146698 67.886391 42.863510
v -76.146698 68.205490 38.066212
v 76.146698 78.121391 38.066212
v 76.146698 68.205490 38.066212
v 76.146698 78.121391 43.182610
v -76.146698 68.205490 43.182610
v 76.146698 68.205490 43.182610
v -76.146698 67.886406 -42.863487
v 76.146698 67.886406 -38.385387
v -76.146698 67.886406 -38.385387
v -76.146698 68.205505 -38.066189
v 76.146698 78.121407 -38.066189
v -76.146698 78.121407 -38.066189
v 76.146698 78.121407 -43.182587
v -76.146698 68.205505 -43.182587
v -76.146698 78.121407 -43.182587
v 76.146698 68.205505 -43.182587
v -90.736000 82.180794 44.558315
v -89.433800 82.180794 48.511017
v -90.736000 82.180809 -44.558285
v 85.489502 81.925392 50.064011
v 85.481102 82.180794 49.813217
v -85.481102 82.180794 49.813217
v 90.986801 81.925407 -44.566689
v 90.736000 82.180809 -44.558285
v 90.736000 82.180794 44.558315
v -90.986801 81.925392 44.566711
v -85.489502 81.925407 -50.063988
v -85.481102 82.180809 -49.813187
v 85.481102 82.180809 -49.813187
v -85.489502 81.925392 50.064011
v -86.741699 82.180794 49.729115
v 90.986801 81.925392 44.566711
v 90.651901 82.180794 45.818916
v -90.986801 81.925407 -44.566689
v -90.651901 82.180809 -45.818886
v 85.489502 81.925407 -50.063988
v 86.741699 82.180809 -49.729084
v -90.900902 81.925392 45.855110
v -90.651901 82.180794 45.818916
v -90.428398 81.925392 47.444511
v -90.200996 82.180794 47.338715
v -89.612602 81.925491 48.689812
v -88.367302 81.925392 49.505611
v -88.261497 82.180794 49.278214
v -86.777802 81.925392 49.978111
v 86.777901 81.925392 49.978111
v 86.741699 82.180794 49.729115
v 88.367302 81.925392 49.505611
v 88.261497 82.180794 49.278214
v 89.612602 81.925491 48.689812
v 89.425499 82.180794 48.502716
v 90.428398 81.925392 47.444511
v 90.200996 82.180794 47.338715
v 90.900902 81.925392 45.855110
v -86.777802 81.925407 -49.978088
v -86.741699 82.180809 -49.729084
v -88.367302 81.925407 -49.505589
v -88.261497 82.180809 -49.278183
v -89.612602 81.925507 -48.689789
v -89.433800 82.180809 -48.510986
v -90.428398 81.925507 -47.444489
v -90.200996 82.180809 -47.338684
v -90.900902 81.925407 -45.855087
v 90.900902 81.925507 -45.855087
v 90.651901 82.180809 -45.818886
v 90.428398 81.925507 -47.444489
v 90.200996 82.180809 -47.338684
v 89.612602 81.925507 -48.689789
v 89.433800 82.180809 -48.510986
v 88.367302 81.925407 -49.505589
v 88.261497 82.180809 -49.278183
v 86.777802 81.925407 -49.978088
v -85.489502 78.044090 50.064011
v 85.489502 78.044090 50.064011
v 90.986801 78.044090 44.566711
v 90.986801 78.044106 -44.566689
v -90.986801 78.044106 -44.566689
v -90.986801 78.044090 44.566711
v 85.489502 78.044106 -50.063988
v -85.489502 78.044106 -50.063988
v -86.777901 78.044090 49.978111
v 90.900902 78.044090 45.855110
v -90.900902 78.044106 -45.855087
v 86.777802 78.044106 -49.978088
v -90.900902 78.044090 45.855110
v -90.428398 78.044090 47.444511
v -89.612602 78.044090 48.689812
v -88.367302 78.044090 49.505611
v 86.777901 78.044090 49.978111
v 88.367302 78.044090 49.505611
v 89.612602 78.044090 48.689812
v 90.428398 78.044090 47.444511
v -86.777802 78.044106 -49.978088
v -88.367302 78.044106 -49.505589
v -89.612602 78.044106 -48.689789
v -90.428398 78.044106 -47.444489
v 90.900902 78.044106 -45.855087
v 90.428398 78.044106 -47.444489
v 89.612602 78.044106 -48.689789
v 88.367302 78.044106 -49.505589
v -82.808296 78.214790 36.402912
v 77.730400 78.214806 -36.789188
v -76.146698 67.886391 38.385410
v -76.146698 78.121391 38.066212
v -76.146698 78.121391 43.182610
v 76.146698 67.886406 -42.863487
v 76.146698 68.205505 -38.066189
vt 0.865800 0.362500
vt 0.837900 0.648600
vt 0.833900 0.362500
vt 0.830400 0.363600
vt 0.802600 0.649800
vt 0.798200 0.363700
vt 0.795400 0.363600
vt 0.767600 0.649800
vt 0.763500 0.363600
vt 0.898700 0.362200
vt 0.870400 0.648300
vt 0.866500 0.362200
vt 0.861000 0.685400
vt 0.837100 0.685400
vt 0.861000 0.661400
vt 0.865300 0.362200
vt 0.826600 0.649800
vt 0.831500 0.363600
vt 0.797000 0.363700
vt 0.894500 0.648300
vt 0.899800 0.362200
vt 0.982200 0.990100
vt 0.949500 0.703800
vt 0.973500 0.703700
vt 0.940200 0.989800
vt 0.912300 0.703200
vt 0.935900 0.703200
vt 0.902600 0.991100
vt 0.879300 0.704300
vt 0.903200 0.704400
vt 0.865400 0.989600
vt 0.837400 0.703000
vt 0.863800 0.703000
vt 0.918700 0.661000
vt 0.943500 0.661000
vt 0.943500 0.686000
vt 0.836100 0.989600
vt 0.835900 0.989600
vt 0.950100 0.990500
vt 0.948900 0.990500
vt 0.903800 0.991000
vt 0.865100 0.989600
vt 0.940300 0.647500
vt 0.913500 0.372500
vt 0.936400 0.372500
vt 0.715800 0.640600
vt 0.692000 0.365300
vt 0.715100 0.365600
vt 0.987700 0.649200
vt 0.960900 0.374200
vt 0.983900 0.374200
vt 0.757400 0.643000
vt 0.732000 0.367800
vt 0.755200 0.368000
vt 0.744700 0.685100
vt 0.721800 0.685100
vt 0.721700 0.662000
vt 0.725300 0.642800
vt 0.726500 0.642900
vt 0.717000 0.640600
vt 0.988900 0.649200
vt 0.758600 0.643000
vt 0.689800 0.982000
vt 0.717700 0.696000
vt 0.719400 0.982000
vt 0.727200 0.988100
vt 0.755400 0.702200
vt 0.759400 0.988100
vt 0.765000 0.992100
vt 0.792900 0.706100
vt 0.794600 0.992100
vt 0.800500 0.993500
vt 0.828600 0.707500
vt 0.832700 0.993500
vt 0.803000 0.664800
vt 0.803000 0.688700
vt 0.779000 0.664800
vt 0.689800 0.982000
vt 0.691500 0.696000
vt 0.719400 0.982000
vt 0.766700 0.706100
vt 0.765000 0.992100
vt 0.794700 0.992100
vt 0.700500 0.349900
vt 0.967300 0.314000
vt 0.967300 0.349900
vt 0.700500 0.305400
vt 0.967300 0.290400
vt 0.967300 0.305400
vt 0.699500 0.284100
vt 0.966300 0.248200
vt 0.966300 0.284100
vt 0.700500 0.314000
vt 0.967300 0.311600
vt 0.699500 0.286500
vt 0.966300 0.286500
vt 0.720600 0.011600
vt 0.987400 0.047500
vt 0.720600 0.047500
vt 0.721600 0.062500
vt 0.988300 0.077500
vt 0.721600 0.077500
vt 0.719200 0.091400
vt 0.986000 0.127200
vt 0.719200 0.127200
vt 0.987400 0.049900
vt 0.720600 0.049900
vt 0.719200 0.088900
vt 0.986000 0.091400
vt 0.562700 0.201300
vt 0.007600 0.217700
vt 0.007600 0.201300
vt 0.564000 0.052600
vt 0.008900 0.088700
vt 0.008900 0.052600
vt 0.006600 0.139700
vt 0.561700 0.175900
vt 0.006600 0.175900
vt 0.561700 0.177500
vt 0.006600 0.177500
vt 0.008900 0.050900
vt 0.561100 0.198300
vt 0.006000 0.182000
vt 0.561100 0.182000
vt 0.563400 0.045500
vt 0.008300 0.009300
vt 0.563400 0.009300
vt 0.007500 0.133700
vt 0.562700 0.097600
vt 0.562700 0.133700
vt 0.007500 0.097600
vt 0.562700 0.095900
vt 0.008300 0.047100
vt 0.563400 0.047100
vt 0.016900 0.633100
vt 0.019900 0.618700
vt 0.016300 0.952600
vt 0.655000 0.607300
vt 0.655000 0.608600
vt 0.029200 0.608500
vt 0.944400 0.170200
vt 0.944400 0.171600
vt 0.617500 0.170900
vt 0.942000 0.211300
vt 0.942000 0.212600
vt 0.614900 0.212000
vt 0.652900 0.991400
vt 0.652900 0.992700
vt 0.027000 0.992500
vt 0.029200 0.607100
vt 0.024500 0.608400
vt 0.617500 0.169600
vt 0.612700 0.170900
vt 0.614900 0.210700
vt 0.610200 0.212000
vt 0.027100 0.991200
vt 0.022300 0.992500
vt 0.946700 0.211300
vt 0.946700 0.212600
vt 0.952700 0.211400
vt 0.952700 0.212700
vt 0.958100 0.211500
vt 0.957900 0.212800
vt 0.018500 0.607200
vt 0.018500 0.608500
vt 0.013300 0.608600
vt 0.024500 0.607100
vt 0.659600 0.607300
vt 0.659700 0.608600
vt 0.665600 0.607400
vt 0.665600 0.608600
vt 0.671000 0.607500
vt 0.670800 0.608800
vt 0.606800 0.169600
vt 0.606800 0.170900
vt 0.601600 0.171100
vt 0.612800 0.169600
vt 0.657600 0.991400
vt 0.657600 0.992700
vt 0.663600 0.991400
vt 0.663600 0.992700
vt 0.669000 0.991500
vt 0.668800 0.992800
vt 0.604200 0.210700
vt 0.604300 0.212000
vt 0.599000 0.212100
vt 0.610200 0.210700
vt 0.949100 0.170200
vt 0.949100 0.171600
vt 0.955100 0.170300
vt 0.955100 0.171600
vt 0.960500 0.170400
vt 0.960300 0.171700
vt 0.016400 0.991200
vt 0.016400 0.992500
vt 0.011200 0.992700
vt 0.022400 0.991200
vt 0.029200 0.592900
vt 0.655000 0.593100
vt 0.617500 0.155400
vt 0.944500 0.156000
vt 0.614900 0.196400
vt 0.942100 0.197000
vt 0.027000 0.977000
vt 0.652900 0.977200
vt 0.024400 0.592900
vt 0.612700 0.155400
vt 0.610200 0.196400
vt 0.022300 0.977000
vt 0.946800 0.197100
vt 0.952900 0.197100
vt 0.958400 0.197200
vt 0.012900 0.593100
vt 0.018400 0.593000
vt 0.659700 0.593100
vt 0.665800 0.593200
vt 0.671300 0.593200
vt 0.601200 0.155500
vt 0.606600 0.155400
vt 0.657700 0.977200
vt 0.663800 0.977200
vt 0.669200 0.977300
vt 0.598600 0.196500
vt 0.604100 0.196500
vt 0.949200 0.156000
vt 0.955300 0.156100
vt 0.960800 0.156200
vt 0.010800 0.977100
vt 0.016200 0.977000
vt 0.030500 0.588300
vt 0.030500 0.222600
vt 0.655000 0.588300
vt 0.646200 0.614300
vt 0.650400 0.614600
vt 0.646000 0.971500
vt 0.662300 0.952700
vt 0.661900 0.962800
vt 0.659300 0.967100
vt 0.659700 0.618800
vt 0.662400 0.623100
vt 0.663000 0.633200
vt 0.655000 0.222600
vt 0.659700 0.222900
vt 0.675000 0.568200
vt 0.673000 0.578700
vt 0.670000 0.583300
vt 0.670000 0.227600
vt 0.673000 0.232200
vt 0.675000 0.242700
vt 0.033300 0.614300
vt 0.033100 0.971600
vt 0.029000 0.614600
vt 0.028900 0.971200
vt 0.023800 0.616200
vt 0.023600 0.969600
vt 0.019600 0.967000
vt 0.017400 0.623000
vt 0.016900 0.962700
vt 0.025800 0.588000
vt 0.015500 0.583300
vt 0.012500 0.578700
vt 0.010400 0.568200
vt 0.010400 0.242700
vt 0.012500 0.232200
vt 0.015500 0.227600
vt 0.650300 0.971200
vt 0.655700 0.616200
vt 0.655500 0.969600
vt 0.659700 0.588000
vt 0.665500 0.224600
vt 0.665500 0.586300
vt 0.025800 0.222900
vt 0.020000 0.586300
vt 0.020000 0.224600
vt 0.861700 0.648600
vt 0.791400 0.649800
vt 0.837200 0.661400
vt 0.907900 0.989800
vt 0.870600 0.990700
vt 0.918700 0.686000
vt 0.909600 0.647500
vt 0.684900 0.640300
vt 0.957100 0.649200
vt 0.744700 0.662000
vt 0.731300 0.702200
vt 0.804600 0.707500
vt 0.779000 0.688700
vt 0.700500 0.290400
vt 0.699500 0.248200
vt 0.700500 0.311600
vt 0.987400 0.011600
vt 0.988300 0.062500
vt 0.986000 0.088900
vt 0.562700 0.217700
vt 0.564000 0.088700
vt 0.561700 0.139700
vt 0.564000 0.050900
vt 0.006000 0.198300
vt 0.008300 0.045500
vt 0.007500 0.095900
vt 0.013100 0.607300
vt 0.601300 0.169700
vt 0.598800 0.210800
vt 0.011000 0.991300
vt 0.662400 0.957200
vt 0.663000 0.628700
vt 0.674700 0.572900
vt 0.674700 0.238000
vt 0.016900 0.628600
vt 0.016300 0.957100
vt 0.010700 0.572900
vt 0.010800 0.238000
vn 0.0000 -0.0171 0.9999
vn 0.9231 -0.0211 0.3841
vn 0.9999 -0.0170 -0.0018
vn 0.9231 -0.0211 -0.3841
vn -0.0000 -0.0171 -0.9999
vn -0.9231 -0.0211 -0.3841
vn -0.9999 -0.0170 0.0018
vn -0.9231 -0.0211 0.3841
vn -0.0000 -1.0000 -0.0000
vn -0.7069 -0.0220 0.7069
vn 0.9999 -0.0170 0.0018
vn 0.7069 -0.0220 0.7069
vn 0.7069 -0.0220 -0.7069
vn -0.9999 -0.0170 -0.0018
vn -0.7069 -0.0220 -0.7069
vn -0.0019 -0.0171 0.9999
vn -0.9999 -0.0170 0.0000
vn -0.3840 -0.0212 -0.9231
vn -0.0019 -0.0171 -0.9999
vn 0.9231 -0.0211 -0.3840
vn 0.9999 -0.0170 0.0019
vn 0.9999 -0.0170 -0.0019
vn 0.7071 -0.0220 0.7068
vn 0.9231 -0.0211 0.3840
vn -0.3840 -0.0212 0.9231
vn 0.7071 -0.0220 -0.7068
vn 0.9999 -0.0170 0.0000
vn 0.3840 -0.0212 0.9231
vn 0.0019 -0.0171 0.9999
vn -0.9230 -0.0211 0.3842
vn -0.9999 -0.0170 -0.0019
vn -0.9999 -0.0170 0.0019
vn -0.7068 -0.0220 -0.7071
vn -0.9230 -0.0211 -0.3842
vn -0.7068 -0.0220 0.7071
vn 0.3839 -0.0212 -0.9231
vn 0.3839 -0.0212 0.9231
vn 0.7068 -0.0220 -0.7071
vn 0.0019 -0.0171 -0.9999
vn 0.7068 -0.0220 0.7071
vn 1.0000 0.0000 0.0000
vn 0.9239 -0.3827 -0.0000
vn -0.9239 -0.3827 -0.0000
vn -1.0000 0.0000 0.0000
vn 0.7071 -0.7071 -0.0000
vn -0.7071 -0.7071 -0.0000
vn 0.0000 -0.3827 -0.9239
vn 0.0000 0.0000 -1.0000
vn 0.0000 -0.3828 -0.9238
vn 0.0000 0.0000 1.0000
vn 0.0000 -0.3827 0.9239
vn 0.0000 -0.7071 0.7071
vn 0.0000 -0.7072 -0.7070
vn 0.0000 -0.7071 -0.7071
vn 0.0000 -0.7072 0.7070
vn -0.0000 1.0000 0.0000
vn 0.0308 0.3758 0.9262
vn 0.0237 0.7009 0.7129
vn -0.0238 0.7008 0.7129
vn 0.9262 0.3758 -0.0308
vn 0.7129 0.7009 -0.0237
vn 0.7129 0.7008 0.0238
vn -0.9262 0.3758 0.0308
vn -0.7129 0.7009 0.0237
vn -0.7129 0.7008 -0.0238
vn -0.0308 0.3758 -0.9262
vn -0.0237 0.7009 -0.7129
vn 0.0238 0.7008 -0.7129
vn -0.0308 0.3758 0.9262
vn -0.1271 0.7016 0.7012
vn 0.9262 0.3758 0.0308
vn 0.7012 0.7016 0.1271
vn -0.9262 0.3758 -0.0308
vn -0.7012 0.7016 -0.1271
vn 0.0308 0.3758 -0.9262
vn 0.1271 0.7016 -0.7012
vn -0.9145 0.3700 0.1637
vn -0.7012 0.7015 0.1273
vn -0.8439 0.3668 0.3915
vn -0.6474 0.7006 0.3001
vn -0.6586 0.3642 0.6585
vn -0.5024 0.7038 0.5022
vn -0.3915 0.3667 0.8439
vn -0.3001 0.7007 0.6473
vn -0.1636 0.3700 0.9145
vn 0.1637 0.3700 0.9145
vn 0.1273 0.7015 0.7012
vn 0.3915 0.3668 0.8439
vn 0.2999 0.7019 0.6461
vn 0.6568 0.3730 0.6553
vn 0.4937 0.7185 0.4899
vn 0.8431 0.3675 0.3925
vn 0.6459 0.7007 0.3029
vn 0.4937 0.7185 0.4900
vn 0.9145 0.3700 0.1636
vn -0.1637 0.3700 -0.9145
vn -0.1273 0.7015 -0.7012
vn -0.3915 0.3668 -0.8439
vn -0.3001 0.7006 -0.6474
vn -0.6585 0.3642 -0.6586
vn -0.5022 0.7038 -0.5024
vn -0.8439 0.3668 -0.3915
vn -0.6471 0.7009 -0.3000
vn -0.9145 0.3700 -0.1636
vn 0.9144 0.3701 -0.1637
vn 0.7011 0.7016 -0.1272
vn 0.8439 0.3669 -0.3915
vn 0.6473 0.7007 -0.3000
vn 0.6586 0.3642 -0.6585
vn 0.5024 0.7038 -0.5022
vn 0.3915 0.3667 -0.8439
vn 0.3001 0.7008 -0.6472
vn 0.1636 0.3700 -0.9145
vn -0.0333 0.0000 0.9994
vn 0.0333 0.0000 0.9994
vn 0.9994 0.0000 0.0333
vn 0.9994 0.0000 -0.0333
vn -0.9994 0.0000 -0.0333
vn -0.9994 0.0000 0.0333
vn 0.0333 0.0000 -0.9994
vn -0.0333 0.0000 -0.9994
vn -0.1768 0.0000 0.9842
vn 0.9842 0.0000 0.1768
vn -0.9842 0.0000 -0.1768
vn 0.1768 0.0000 -0.9842
vn -0.9842 0.0000 0.1768
vn -0.9071 0.0000 0.4209
vn -0.7071 0.0000 0.7071
vn -0.4209 0.0000 0.9071
vn 0.1768 0.0000 0.9842
vn 0.4209 0.0000 0.9071
vn 0.7071 0.0000 0.7071
vn 0.9071 0.0000 0.4209
vn -0.1768 0.0000 -0.9842
vn -0.4209 0.0000 -0.9071
vn -0.7071 0.0000 -0.7071
vn -0.9071 0.0000 -0.4209
vn 0.9842 0.0000 -0.1768
vn 0.9071 0.0000 -0.4209
vn 0.7071 0.0000 -0.7071
vn 0.4209 0.0000 -0.9071
vn 0.0000 -0.3828 0.9238
usemtl table
s 1
f 1/1/1 2/2/1 3/3/1
f 4/4/2 5/5/3 6/6/4
f 7/7/5 8/8/5 9/9/5
f 10/10/6 11/11/7 12/12/8
f 8/13/9 5/14/9 11/15/9
f 1/16/10 12/12/8 11/11/7
f 2/17/11 4/4/2 3/18/12
f 5/5/3 7/19/13 6/6/4
f 8/20/14 10/10/6 9/21/15
f 13/22/1 14/23/16 15/24/1
f 16/25/17 17/26/17 14/27/17
f 18/28/18 19/29/5 17/30/19
f 20/31/20 15/32/21 19/33/22
f 15/34/9 14/35/9 17/36/9
f 13/37/23 15/32/21 21/38/24
f 22/39/25 16/40/10 14/23/16
f 23/41/15 18/28/18 17/30/19
f 24/42/26 20/31/20 19/33/22
f 25/43/5 26/44/5 27/45/5
f 28/46/4 29/47/27 26/48/22
f 30/49/28 31/50/1 29/51/29
f 32/52/30 27/53/31 31/54/32
f 27/55/9 26/56/9 29/57/9
f 25/58/33 27/53/31 33/59/34
f 34/60/13 28/46/4 26/48/22
f 35/61/12 30/49/28 29/51/29
f 36/62/35 32/52/30 31/54/32
f 37/63/36 38/64/19 39/65/18
f 40/66/17 41/67/17 42/68/17
f 43/69/25 44/70/29 45/71/37
f 46/72/27 47/73/27 48/74/27
f 44/75/9 41/76/9 47/77/9
f 37/63/36 48/78/38 47/79/39
f 38/64/19 40/80/15 39/65/18
f 41/81/16 43/69/25 42/82/10
f 44/70/29 46/83/40 45/71/37
f 49/84/41 50/85/42 51/86/41
f 52/87/9 53/88/9 54/89/9
f 55/90/43 56/91/44 57/92/43
f 58/93/42 54/94/45 50/85/42
f 59/95/46 57/92/43 53/96/46
f 60/97/44 61/98/43 62/99/43
f 63/100/9 64/101/9 65/102/9
f 66/103/42 67/104/41 68/105/41
f 62/99/43 69/106/46 63/107/46
f 65/108/45 70/109/42 66/103/42
f 71/110/9 72/111/9 73/112/9
f 74/113/47 75/114/48 76/115/49
f 77/116/50 78/117/51 79/118/51
f 79/118/51 71/119/52 73/120/52
f 72/121/53 74/113/47 76/115/49
f 80/122/9 81/123/9 82/124/9
f 83/125/51 84/126/50 85/127/50
f 86/128/48 87/129/47 88/130/48
f 89/131/47 80/132/54 87/129/47
f 81/133/55 83/125/51 82/134/55
f 90/135/56 91/136/56 92/137/56
f 93/138/57 94/139/58 95/140/59
f 96/141/60 97/142/61 98/143/62
f 99/144/63 90/145/64 92/146/65
f 100/147/66 101/148/67 102/149/68
f 103/150/69 95/140/59 104/151/70
f 105/152/71 98/143/62 106/153/72
f 107/154/73 92/146/65 108/155/74
f 109/156/75 102/149/68 110/157/76
f 111/158/77 112/159/78 90/145/64
f 113/160/79 114/161/80 112/159/78
f 115/162/81 91/163/82 114/161/80
f 116/164/83 117/165/84 91/166/82
f 118/167/85 104/151/70 117/165/84
f 119/168/86 120/169/87 94/139/58
f 121/170/88 122/171/89 120/169/87
f 123/172/90 124/173/91 122/171/89
f 125/174/92 126/175/93 124/176/94
f 127/177/95 106/153/72 126/175/93
f 128/178/96 129/179/97 101/148/67
f 130/180/98 131/181/99 129/179/97
f 132/182/100 133/183/101 131/181/99
f 134/184/102 135/185/103 133/186/101
f 136/187/104 108/155/74 135/185/103
f 137/188/105 138/189/106 97/142/61
f 139/190/107 140/191/108 138/189/106
f 141/192/109 142/193/110 140/191/108
f 143/194/111 144/195/112 142/196/110
f 145/197/113 110/157/76 144/195/112
f 93/138/57 146/198/114 147/199/115
f 96/141/60 148/200/116 149/201/117
f 99/144/63 150/202/118 151/203/119
f 100/147/66 152/204/120 153/205/121
f 103/150/69 154/206/122 146/198/114
f 105/152/71 155/207/123 148/200/116
f 107/154/73 156/208/124 150/202/118
f 109/156/75 157/209/125 152/204/120
f 111/158/77 151/203/119 158/210/126
f 113/160/79 158/210/126 159/211/127
f 115/162/81 159/211/127 160/212/128
f 116/164/83 160/213/128 161/214/129
f 118/167/85 161/214/129 154/206/122
f 119/168/86 147/199/115 162/215/130
f 121/170/88 162/215/130 163/216/131
f 123/172/90 163/216/131 164/217/132
f 125/174/92 164/218/132 165/219/133
f 127/177/95 165/219/133 155/207/123
f 128/178/96 153/205/121 166/220/134
f 130/180/98 166/220/134 167/221/135
f 132/182/100 167/221/135 168/222/136
f 134/184/102 168/223/136 169/224/137
f 136/187/104 169/224/137 156/208/124
f 137/188/105 149/201/117 170/225/138
f 139/190/107 170/225/138 171/226/139
f 141/192/109 171/226/139 172/227/140
f 143/194/111 172/228/140 173/229/141
f 145/197/113 173/229/141 157/209/125
f 146/230/9 153/231/9 147/232/9
f 94/233/56 120/234/56 102/235/56
f 97/236/56 140/237/56 142/238/56
f 124/239/56 126/240/56 98/241/56
f 152/242/9 157/243/9 147/232/9
f 148/244/9 165/245/9 164/246/9
f 172/247/9 171/248/9 149/249/9
f 95/250/56 94/233/56 101/251/56
f 104/252/56 95/250/56 129/253/56
f 117/254/56 104/252/56 131/255/56
f 91/136/56 117/254/56 133/256/56
f 90/135/56 114/257/56 91/136/56
f 133/256/56 135/258/56 92/137/56
f 146/230/9 154/259/9 153/231/9
f 160/260/9 159/261/9 151/262/9
f 150/263/9 169/264/9 168/265/9
f 120/234/56 110/266/56 102/235/56
f 122/267/56 144/268/56 110/266/56
f 124/239/56 142/238/56 144/268/56
f 98/241/56 97/236/56 142/238/56
f 157/243/9 162/269/9 147/232/9
f 173/270/9 163/271/9 162/269/9
f 172/247/9 164/246/9 163/271/9
f 149/249/9 148/244/9 164/246/9
f 154/259/9 166/272/9 153/231/9
f 161/273/9 167/274/9 166/272/9
f 160/260/9 168/265/9 167/274/9
f 151/262/9 150/263/9 168/265/9
f 1/1/1 11/275/1 2/2/1
f 4/4/2 2/17/11 5/5/3
f 7/7/5 5/276/5 8/8/5
f 10/10/6 8/20/14 11/11/7
f 5/14/9 2/277/9 11/15/9
f 13/22/1 22/39/25 14/23/16
f 16/25/17 23/278/17 17/26/17
f 18/28/18 24/279/5 19/29/5
f 20/31/20 21/38/24 15/32/21
f 17/36/9 19/280/9 15/34/9
f 25/43/5 34/281/5 26/44/5
f 28/46/4 35/282/27 29/47/27
f 30/49/28 36/283/1 31/50/1
f 32/52/30 33/59/34 27/53/31
f 29/57/9 31/284/9 27/55/9
f 37/63/36 47/79/39 38/64/19
f 40/66/17 38/285/17 41/67/17
f 43/69/25 41/81/16 44/70/29
f 46/72/27 44/286/27 47/73/27
f 41/76/9 38/287/9 47/77/9
f 49/84/41 58/93/42 50/85/42
f 52/87/9 59/288/9 53/88/9
f 55/90/43 174/289/44 56/91/44
f 58/93/42 52/290/45 54/94/45
f 59/95/46 55/90/43 57/92/43
f 60/97/44 175/291/44 61/98/43
f 63/100/9 69/292/9 64/101/9
f 66/103/42 70/109/42 67/104/41
f 62/99/43 61/98/43 69/106/46
f 65/108/45 64/293/45 70/109/42
f 71/110/9 176/294/9 72/111/9
f 74/113/47 177/295/48 75/114/48
f 77/116/50 178/296/50 78/117/51
f 79/118/51 78/117/51 71/119/52
f 72/121/53 176/297/53 74/113/47
f 80/122/9 179/298/9 81/123/9
f 83/125/51 180/299/142 84/126/50
f 86/128/48 89/131/47 87/129/47
f 89/131/47 179/300/54 80/132/54
f 81/133/55 180/299/142 83/125/51
f 91/136/56 133/256/56 92/137/56
f 95/140/59 103/150/69 93/138/57
f 98/143/62 105/152/71 96/141/60
f 92/146/65 107/154/73 99/144/63
f 102/149/68 109/156/75 100/147/66
f 104/151/70 118/167/85 103/150/69
f 106/153/72 127/177/95 105/152/71
f 108/155/74 136/187/104 107/154/73
f 110/157/76 145/197/113 109/156/75
f 90/145/64 99/144/63 111/158/77
f 112/159/78 111/158/77 113/160/79
f 114/161/80 113/160/79 115/162/81
f 91/166/82 115/301/81 116/164/83
f 117/165/84 116/164/83 118/167/85
f 94/139/58 93/138/57 119/168/86
f 120/169/87 119/168/86 121/170/88
f 122/171/89 121/170/88 123/172/90
f 124/176/94 123/302/90 125/174/92
f 126/175/93 125/174/92 127/177/95
f 101/148/67 100/147/66 128/178/96
f 129/179/97 128/178/96 130/180/98
f 131/181/99 130/180/98 132/182/100
f 133/186/101 132/303/100 134/184/102
f 135/185/103 134/184/102 136/187/104
f 97/142/61 96/141/60 137/188/105
f 138/189/106 137/188/105 139/190/107
f 140/191/108 139/190/107 141/192/109
f 142/196/110 141/304/109 143/194/111
f 144/195/112 143/194/111 145/197/113
f 93/138/57 103/150/69 146/198/114
f 96/141/60 105/152/71 148/200/116
f 99/144/63 107/154/73 150/202/118
f 100/147/66 109/156/75 152/204/120
f 103/150/69 118/167/85 154/206/122
f 105/152/71 127/177/95 155/207/123
f 107/154/73 136/187/104 156/208/124
f 109/156/75 145/197/113 157/209/125
f 111/158/77 99/144/63 151/203/119
f 113/160/79 111/158/77 158/210/126
f 115/162/81 113/160/79 159/211/127
f 116/164/83 115/301/81 160/213/128
f 118/167/85 116/164/83 161/214/129
f 119/168/86 93/138/57 147/199/115
f 121/170/88 119/168/86 162/215/130
f 123/172/90 121/170/88 163/216/131
f 125/174/92 123/302/90 164/218/132
f 127/177/95 125/174/92 165/219/133
f 128/178/96 100/147/66 153/205/121
f 130/180/98 128/178/96 166/220/134
f 132/182/100 130/180/98 167/221/135
f 134/184/102 132/303/100 168/223/136
f 136/187/104 134/184/102 169/224/137
f 137/188/105 96/141/60 149/201/117
f 139/190/107 137/188/105 170/225/138
f 141/192/109 139/190/107 171/226/139
f 143/194/111 141/304/109 172/228/140
f 145/197/113 143/194/111 173/229/141
f 153/231/9 152/242/9 147/232/9
f 97/236/56 138/305/56 140/237/56
f 126/240/56 106/306/56 98/241/56
f 148/244/9 155/307/9 165/245/9
f 171/248/9 170/308/9 149/249/9
f 94/233/56 102/235/56 101/251/56
f 95/250/56 101/251/56 129/253/56
f 104/252/56 129/253/56 131/255/56
f 117/254/56 131/255/56 133/256/56
f 90/135/56 112/309/56 114/257/56
f 135/258/56 108/310/56 92/137/56
f 159/261/9 158/311/9 151/262/9
f 150/263/9 156/312/9 169/264/9
f 120/234/56 122/267/56 110/266/56
f 122/267/56 124/239/56 144/268/56
f 124/239/56 98/241/56 142/238/56
f 157/243/9 173/270/9 162/269/9
f 173/270/9 172/247/9 163/271/9
f 172/247/9 149/249/9 164/246/9
f 154/259/9 161/273/9 166/272/9
f 161/273/9 160/260/9 167/274/9
f 160/260/9 151/262/9 168/265/9
